<svg viewBox="0 0 48 48" fill="none" xmlns="http://www.w3.org/2000/svg">
    <path fill-rule="evenodd" clip-rule="evenodd" d="M47.973 10.859a.74.74 0 0 1 .027.196v10.303a.735.735 0 0 1-.104.377.763.763 0 0 1-.285.275l-8.902 4.979v9.868a.75.75 0 0 1-.387.652L19.74 47.9c-.043.023-.09.038-.135.054-.018.006-.034.016-.053.021a.801.801 0 0 1-.396 0c-.021-.006-.04-.017-.061-.024-.043-.015-.087-.029-.128-.051L.39 37.509a.763.763 0 0 1-.285-.276.736.736 0 0 1-.104-.376V5.947c0-.067.01-.133.027-.196.006-.022.02-.042.027-.063.015-.04.028-.08.05-.117.014-.024.035-.044.053-.067.022-.03.042-.06.068-.087.022-.021.051-.037.077-.056.028-.023.053-.047.085-.065L9.677.1a.793.793 0 0 1 .774 0l9.29 5.196h.002c.03.019.057.042.085.064.025.019.053.036.075.056.027.027.047.058.07.088.016.023.038.043.052.067.022.038.035.077.05.117.008.021.021.04.027.063a.74.74 0 0 1 .027.197v19.305l7.742-4.33v-9.869c0-.066.01-.132.027-.195.006-.023.019-.042.027-.064.015-.04.029-.08.05-.116.014-.025.036-.045.052-.067.023-.03.043-.061.07-.087.022-.022.05-.038.075-.057.03-.022.054-.047.085-.065l9.292-5.195a.792.792 0 0 1 .773 0l9.29 5.195c.033.02.058.043.087.064.025.02.053.036.075.057.027.027.046.058.07.088.017.022.038.042.052.067.022.036.034.077.05.116.009.022.021.041.027.064ZM46.45 20.923v-8.567l-3.25 1.818-4.492 2.512v8.567l7.743-4.33Zm-9.29 15.5v-8.574l-4.417 2.45-12.616 6.995v8.654l17.033-9.526ZM1.55 7.247v29.174l17.03 9.525v-8.653l-8.897-4.89-.003-.003-.003-.002c-.03-.017-.056-.041-.084-.062-.024-.018-.052-.033-.073-.054l-.002-.003c-.025-.023-.042-.053-.064-.079-.02-.025-.042-.047-.058-.073v-.003c-.018-.028-.029-.062-.041-.094-.013-.028-.03-.054-.037-.084-.01-.036-.012-.075-.016-.111-.003-.028-.011-.056-.011-.085V11.58L4.8 9.064 1.549 7.248Zm8.516-5.628-7.74 4.328 7.738 4.328 7.74-4.33-7.74-4.326h.002Zm4.026 27.01 4.49-2.51V7.247L15.33 9.066l-4.492 2.512V30.45l3.253-1.819ZM37.935 6.727l-7.74 4.328 7.74 4.328 7.738-4.329-7.738-4.327Zm-.775 9.959-4.49-2.512-3.252-1.818v8.567l4.49 2.511 3.252 1.82v-8.568ZM19.353 35.993l11.352-6.295 5.674-3.146-7.733-4.325-8.904 4.98-8.116 4.538 7.727 4.248Z" fill="#FF2D20"/>
</svg>
